PathFileType	4	(X/Y/Z)	D:\Share\Shared_Data\Ergonomics\Sit To Stand Pertubation\S0\Perturbed STS.trc
DataRate	CameraRate	NumFrames	NumMarkers	Units	OrigDataRate	OrigDataStartFrame	OrigNumFrames	
100	100	19	18	m	100	12906	241
Frame#	Time	R_Heel			R_ASIS			R_Pelvis			V_Sacral			L_Pelvis			L_ASIS			Clavical			R_Acromium			L_Acromium			Sternum			Torso			R_Thigh_Med			R_Thigh_Lat			R_Thigh			R_Shank_Med			R_Shank_Lat			R_Shank			R_Toe			
		X1	Y1	Z1	X2	Y2	Z2	X3	Y3	Z3	X4	Y4	Z4	X5	Y5	Z5	X6	Y6	Z6	X7	Y7	Z7	X8	Y8	Z8	X9	Y9	Z9	X10	Y10	Z10	X11	Y11	Z11	X12	Y12	Z12	X13	Y13	Z13	X14	Y14	Z14	X15	Y15	Z15	X16	Y16	Z16	X17	Y17	Z17	X18	Y18	Z18	

12906	85.4	0.17161861	0.042664906	0.1154995	-0.010237706	0.73549359	0.13620505	-0.14099103	0.73067261	0.17780457	-0.26139737	0.70928015	-0.052211849	-0.11547939	0.72029016	-0.22963667	0.0078516312	0.72549213	-0.18225441	0.14386192	1.0544878	-0.036850697	0.095165382	1.1438931	0.10208286	0.085272949	1.1489468	-0.18544055	0.13627901	0.95754022	-0.051992584	0.12965538	1.0087841	-0.15695322	0.31143033	0.49159964	0.054000175	0.29389615	0.50898499	0.18718529	0.22231987	0.64325415	0.10196883	0.2705412	0.10431654	0.075075684	0.21229706	0.086017242	0.16329324	0.26243115	0.3095607	0.19178159	0.39318503	0.053000088	0.11133544
12907	85.41	0.17160324	0.042597511	0.11546642	-0.0081549997	0.73584924	0.13632196	-0.13887086	0.73187854	0.17783739	-0.25958344	0.71142798	-0.052179413	-0.11348593	0.72125995	-0.2296342	0.0099712849	0.72510071	-0.18212329	0.15082701	1.0516128	-0.036733955	0.10347563	1.1418893	0.10198077	0.093337715	1.1468665	-0.18526923	0.14186581	0.95484283	-0.051935711	0.13601131	1.0061854	-0.15683844	0.31169507	0.49142429	0.054334274	0.29437119	0.5088342	0.1875202	0.22304738	0.64326654	0.1022489	0.27057727	0.10424513	0.075085655	0.21230611	0.085931381	0.16328871	0.26261658	0.30942599	0.19193289	0.39329181	0.052923332	0.11146791
12908	85.42	0.17159392	0.042534813	0.11543272	-0.0060451612	0.73619281	0.13641116	-0.13662936	0.7331264	0.17786462	-0.25766284	0.71365051	-0.052154606	-0.11139423	0.7222605	-0.22965462	0.012183314	0.72467352	-0.18200671	0.15791115	1.0486504	-0.036598652	0.11191519	1.1398007	0.10186542	0.10151685	1.144698	-0.18509538	0.14752251	0.95208337	-0.051889282	0.1424781	1.0035198	-0.15672241	0.31201373	0.49125723	0.054659466	0.2948941	0.508686	0.18784679	0.22382425	0.64329657	0.10252052	0.27062283	0.10417535	0.075089973	0.21232817	0.08584819	0.16328242	0.26283926	0.30929123	0.19208276	0.39341064	0.052839672	0.11159601
12909	85.43	0.17159334	0.042478245	0.1153966	-0.0038913567	0.73650452	0.13647295	-0.1342639	0.73441364	0.17788524	-0.25563196	0.71594849	-0.052139427	-0.10919664	0.72329132	-0.22969234	0.014480174	0.72420142	-0.18190668	0.16511957	1.0456062	-0.036447388	0.12047404	1.1376284	0.10173312	0.10980801	1.1424463	-0.1849236	0.153257	0.94926721	-0.051856766	0.14905284	1.0007918	-0.15660503	0.31239282	0.49110043	0.054969997	0.29545685	0.50853793	0.18816002	0.22464272	0.6433396	0.10277971	0.27068146	0.1041068	0.075086037	0.21236612	0.085768578	0.1632715	0.26310156	0.30915686	0.19222621	0.39354462	0.052748013	0.11172025
12910	85.44	0.17160379	0.042428009	0.1153565	-0.0016631602	0.73677783	0.13650809	-0.13177332	0.73573846	0.17789847	-0.25348619	0.71832404	-0.052134701	-0.10688486	0.72435364	-0.22974046	0.016864655	0.72368103	-0.18182326	0.17245821	1.0424877	-0.036285881	0.12914157	1.1353743	0.10157913	0.11820882	1.1401158	-0.18475688	0.15908699	0.94640057	-0.051841751	0.1557347	0.9980069	-0.1564868	0.31283615	0.49095355	0.055258999	0.29604929	0.50838559	0.18845465	0.22549733	0.6433941	0.10302237	0.27075662	0.10403853	0.075072189	0.21242308	0.085693008	0.16325293	0.26340341	0.30902283	0.19235756	0.39369763	0.052647335	0.11184206
12911	85.45	0.17162714	0.042382893	0.11531113	0.00067254531	0.73702112	0.13652217	-0.12915739	0.73710132	0.17790395	-0.25121967	0.72078107	-0.052140518	-0.10445128	0.72545038	-0.22979451	0.019343906	0.72311346	-0.18175546	0.17993149	1.0393027	-0.036121548	0.13790843	1.1330408	0.10139935	0.12671782	1.1377147	-0.18459607	0.16503711	0.94349084	-0.05184676	0.1625248	0.99517194	-0.156368	0.31334271	0.49081378	0.055518379	0.29666449	0.50822437	0.18872493	0.22638751	0.64346399	0.10324501	0.27085095	0.10396848	0.075047363	0.21250229	0.085621254	0.16322398	0.26374252	0.30888797	0.19247063	0.39387396	0.052537163	0.11196348
12912	85.46	0.17166464	0.042340874	0.11525966	0.0031311347	0.73724719	0.13652235	-0.12641663	0.7385058	0.1779017	-0.24882689	0.72332629	-0.052156952	-0.1018896	0.7265871	-0.22985376	0.021923429	0.72250568	-0.1817023	0.18753981	1.0360619	-0.0359608	0.14676761	1.1306343	0.10119186	0.1353351	1.1352538	-0.18444016	0.17113257	0.94054681	-0.051872097	0.16942554	0.99229565	-0.15624826	0.31390619	0.49067661	0.055739075	0.29729932	0.50805133	0.18896405	0.22731741	0.64355621	0.10344415	0.27096625	0.10389383	0.075010468	0.21260677	0.085552948	0.16318315	0.26411526	0.30875076	0.19255887	0.3940766	0.052418236	0.11208642
12913	85.47	0.17171712	0.042300014	0.11520185	0.0057065477	0.73746735	0.13651381	-0.12355241	0.73995911	0.17789214	-0.24630309	0.72596918	-0.052184448	-0.099194595	0.72777002	-0.22991959	0.024605471	0.72187079	-0.1816638	0.19527719	1.0327778	-0.035806759	0.15571385	1.1281652	0.10095771	0.14406163	1.1327463	-0.18428558	0.17739247	0.93757886	-0.051915188	0.17643948	0.98938977	-0.15612633	0.31451532	0.49053726	0.055911751	0.2979523	0.50786633	0.18916371	0.22829401	0.64367755	0.10361461	0.27110385	0.10381167	0.074960381	0.21273926	0.085488159	0.16313039	0.26451807	0.30860965	0.19261546	0.39430652	0.052292664	0.1122117
12914	85.48	0.17178523	0.042258663	0.11513819	0.0083847952	0.73769275	0.13649998	-0.12056722	0.74147278	0.17787614	-0.243644	0.72872137	-0.05222398	-0.096361633	0.72900519	-0.22999327	0.027387712	0.72122736	-0.18164305	0.20313046	1.0294646	-0.035658375	0.16474374	1.1256479	0.10070176	0.15289761	1.1302047	-0.18412523	0.18382771	0.93459949	-0.051970905	0.183569	0.98646887	-0.15600052	0.31515649	0.49039224	0.056027508	0.29862225	0.5076716	0.18931415	0.22932471	0.64383215	0.10374876	0.2712648	0.10371912	0.074896233	0.21290152	0.085427391	0.16306676	0.26494772	0.3084639	0.19263402	0.39456299	0.052163158	0.11233881
12915	85.49	0.17186977	0.042215534	0.11506981	0.011154675	0.73793402	0.13648471	-0.11746362	0.74306055	0.17785425	-0.24084567	0.73159442	-0.052276646	-0.09338633	0.73029749	-0.23007472	0.030262508	0.72059802	-0.18164906	0.21108047	1.0261381	-0.035511082	0.173855	1.1231018	0.10043242	0.16184114	1.1276387	-0.18394864	0.1904416	0.93162274	-0.052032593	0.19081595	0.9835506	-0.15586913	0.31581616	0.49023969	0.056078312	0.29930872	0.50747174	0.18940459	0.23041638	0.64402118	0.10383622	0.27144946	0.10361289	0.074817551	0.21309404	0.085371124	0.16299347	0.2654021	0.30831396	0.19260931	0.39484488	0.052031639	0.11246613
12916	85.5	0.17197157	0.042170135	0.11499833	0.014011691	0.7381983	0.1364742	-0.11424251	0.74473682	0.1778257	-0.23790419	0.73459912	-0.052343414	-0.090264526	0.73165106	-0.23016306	0.033219662	0.72000793	-0.18169878	0.21910365	1.0228138	-0.035357929	0.1830435	1.1205481	0.100159	0.17088661	1.1250577	-0.18374474	0.19723044	0.92866235	-0.052093254	0.19818063	0.98065308	-0.15573018	0.31648325	0.4900787	0.056057014	0.3000119	0.5072717	0.18942488	0.23157518	0.64424335	0.10386378	0.27165762	0.10348901	0.074724228	0.21331448	0.085319229	0.16291096	0.26588116	0.30816089	0.19253734	0.39515195	0.051898109	0.11259161
12917	85.51	0.17209106	0.042123253	0.11492557	0.016959169	0.73848889	0.1364771	-0.11090154	0.74651392	0.17778719	-0.23481516	0.73774408	-0.052425556	-0.086992775	0.73307123	-0.23025871	0.036250416	0.7194834	-0.18181781	0.2271743	1.0195076	-0.035190704	0.19229984	1.1180081	0.099888786	0.18002325	1.1224746	-0.18350578	0.20418335	0.9257309	-0.05214669	0.20565903	0.97779333	-0.1555806	0.31715027	0.48990839	0.055957253	0.30073401	0.5070762	0.18936607	0.23280562	0.64449585	0.10381629	0.27188821	0.10334374	0.07461602	0.21355649	0.085270485	0.16281844	0.26638742	0.30800641	0.19241505	0.39548471	0.051760445	0.11271309
12918	85.52	0.17222777	0.042076431	0.11485316	0.020008148	0.73880737	0.13650227	-0.10743476	0.74840204	0.17773293	-0.23157379	0.74103577	-0.052525185	-0.083568344	0.73456549	-0.23036482	0.03934948	0.71904877	-0.18203929	0.23526762	1.0162362	-0.035001236	0.20160707	1.1155009	0.09962645	0.18923456	1.119908	-0.18322812	0.21128239	0.92284009	-0.052188076	0.21324026	0.97498547	-0.15541536	0.31781537	0.48972766	0.055772968	0.30148227	0.50689011	0.18922054	0.23410953	0.64477386	0.10367888	0.27214011	0.10317487	0.074492317	0.21381107	0.085223045	0.16271437	0.26692688	0.30785263	0.19224022	0.39584454	0.051614716	0.11282809
12919	85.53	0.17238005	0.04203117	0.11478251	0.023176001	0.73915674	0.13655399	-0.10383386	0.75041199	0.17765627	-0.22817525	0.74447668	-0.052645332	-0.07998909	0.73614386	-0.23048682	0.042514748	0.71872467	-0.18239888	0.24336343	1.013019	-0.034782619	0.21093987	1.1130428	0.099374947	0.1984986	1.1173768	-0.18290945	0.21850299	0.92000214	-0.052213539	0.22090546	0.97224127	-0.15522646	0.31848672	0.48953644	0.055497322	0.30227228	0.50671988	0.18898167	0.23548721	0.64507001	0.1034391	0.27241122	0.10298237	0.07435186	0.21407109	0.085175575	0.1625975	0.267508	0.30770209	0.19201105	0.39623221	0.051456116	0.1129339
12920	85.54	0.172545	0.041988632	0.11471523	0.026482708	0.73954462	0.13662653	-0.10008955	0.75255548	0.17755096	-0.22461539	0.74806519	-0.05278968	-0.076253777	0.73781665	-0.23063091	0.045745811	0.71852649	-0.18292429	0.25144836	1.009879	-0.03452956	0.22026472	1.1106477	0.099136795	0.20778754	1.1148983	-0.18254674	0.22581496	0.91723151	-0.052219212	0.22862952	0.96957239	-0.15500293	0.31918326	0.48933597	0.055122402	0.30312753	0.50657242	0.18864354	0.23694235	0.64537396	0.10308727	0.27269827	0.10276836	0.074193092	0.21433308	0.085128044	0.16246722	0.2681405	0.3075575	0.19172574	0.39664651	0.051280415	0.11302747
12921	85.55	0.17271838	0.041949509	0.11465318	0.029945364	0.7399845	0.13670187	-0.096193016	0.75484406	0.17741165	-0.22089218	0.75179449	-0.052961941	-0.072363068	0.73959204	-0.23080179	0.049043686	0.71846265	-0.18361998	0.25951288	1.0068434	-0.034237854	0.22954208	1.1083303	0.098915009	0.2170667	1.1124908	-0.18213583	0.23318329	0.91454675	-0.05220052	0.23638322	0.96699396	-0.15473218	0.31992853	0.48912714	0.05464053	0.3040705	0.50645166	0.18820044	0.23848524	0.64567279	0.10261592	0.27299622	0.10253629	0.074014572	0.21459607	0.085081688	0.1623237	0.26883279	0.3074209	0.19138217	0.39708243	0.051085533	0.11310526
12922	85.56	0.17289444	0.041913464	0.11459813	0.033572289	0.74049298	0.13675305	-0.092138107	0.75728485	0.17723325	-0.21700774	0.75565198	-0.053164993	-0.068321274	0.74147327	-0.2310004	0.052412788	0.71852893	-0.18444702	0.26754413	1.003942	-0.033904198	0.23872934	1.1061106	0.098713348	0.22629514	1.1101769	-0.18167288	0.24056966	0.91197211	-0.052152172	0.24413431	0.96452673	-0.15440265	0.32074258	0.48890814	0.054045773	0.30511465	0.50635504	0.18764706	0.24013029	0.64595178	0.10201963	0.27329819	0.10228996	0.073815247	0.21485962	0.085038666	0.16216763	0.26959042	0.3072941	0.19097763	0.39752954	0.050872536	0.11316245
12923	85.57	0.17306622	0.04187912	0.11455077	0.037360111	0.74108795	0.13675046	-0.087924156	0.75987775	0.17701141	-0.21296979	0.75961725	-0.053399403	-0.064138046	0.74345526	-0.23122295	0.05586253	0.71870282	-0.18531052	0.27552139	1.0012063	-0.033527	0.24778331	1.1040123	0.098535774	0.23542894	1.1079855	-0.18115546	0.24793413	0.90953632	-0.052068863	0.25184663	0.96219879	-0.15400655	0.32163849	0.48867419	0.053335354	0.3062674	0.50627542	0.1869801	0.24189186	0.64619379	0.1012951	0.27359549	0.10203248	0.07359433	0.21512303	0.085001968	0.16200005	0.27041513	0.30717773	0.19050935	0.39797333	0.050645687	0.11319358
12924	85.58	0.17322673	0.041844975	0.11450993	0.041296234	0.74178595	0.13666669	-0.083558357	0.76261285	0.17674329	-0.20879196	0.7636604	-0.053661728	-0.05982938	0.74552454	-0.23146114	0.059404087	0.71894867	-0.18608403	0.28341666	0.99866785	-0.03310746	0.25666245	1.1020642	0.098385918	0.24442519	1.1059521	-0.18058369	0.25523773	0.90727075	-0.051946526	0.25947943	0.96004449	-0.15354172	0.32262274	0.48841888	0.05251144	0.30753949	0.50620544	0.18620015	0.24378233	0.6463819	0.10044215	0.27387927	0.10176588	0.073351318	0.21538585	0.084975502	0.16182149	0.27130597	0.30707074	0.18997546	0.39839862	0.050411293	0.11319423
